<svg width="1512" height="1000" viewBox="0 0 1512 1000" fill="none" xmlns="http://www.w3.org/2000/svg">
<path d="M0 0.54834C0 0.54834 9.33811 -0.685554 23.8674 0.54834C38.3967 1.78223 54.307 41.2477 58.1132 42.4816C61.9174 43.7155 63.9939 47.0051 64.6854 50.7044C65.3769 54.4037 75.0637 78.2478 79.9062 81.1252C84.7486 84.0027 85.7869 81.5374 88.2081 84.8246C90.6293 88.1142 93.744 90.5795 93.744 86.8802C93.744 83.1786 98.5844 63.8579 103.429 72.4904C108.271 81.1252 108.616 100.858 112.769 99.2144C116.92 97.5684 122.454 88.9335 128.681 88.7299C134.907 88.5262 139.402 86.8802 140.443 85.6487C141.479 84.4125 149.089 77.0139 154.623 75.3703C160.159 73.7243 161.542 67.9693 168.114 66.3257C174.686 64.6821 187.833 68.3814 189.216 72.0783C190.599 75.78 194.405 85.6487 198.901 87.2899C203.398 88.9359 203.743 97.1563 207.896 102.914C212.047 108.669 228.649 118.123 238.682 127.58C248.714 137.036 254.595 144.847 257.707 144.435C260.82 144.023 260.475 138.677 260.475 138.677L262.55 133.335H267.739L268.777 138.268V144.452L267.392 148.136L272.581 153.479C272.581 153.479 282.268 167.045 290.568 167.867C298.872 168.691 297.142 163.755 304.406 167.867C311.67 171.978 312.361 171.156 321.701 172.39C331.041 173.622 337.267 167.045 345.915 167.457C354.564 167.867 367.708 171.878 374.974 172.544C382.238 173.21 388.118 171.978 392.614 174.446C397.112 176.911 399.186 179.379 406.105 184.722C413.024 190.067 431.357 192.123 443.464 201.165C455.572 210.212 484.628 237.343 495.007 241.455C505.383 245.566 559.692 270.642 569.377 271.466C579.064 272.288 578.025 267.764 587.019 271.466C596.014 275.165 636.832 294.076 661.738 292.842C686.644 291.608 747.18 295.013 771.047 292.9C794.915 290.789 803.217 285.853 814.978 280.099C826.739 274.341 860.985 267.764 874.821 265.711C888.659 263.653 897.652 256.664 911.49 258.31C925.326 259.956 952.653 273.522 964.761 280.099C976.869 286.678 1022.18 300.859 1041.38 296.544C1060.58 292.227 1064.21 280.511 1086 275.577C1107.8 270.642 1137.89 281.126 1153.98 276.811C1170.06 272.494 1189.26 255.227 1189.26 255.227C1189.26 255.227 1205.86 248.444 1209.5 242.892C1213.13 237.343 1231.29 219.46 1231.29 219.46C1231.29 219.46 1252.56 210.828 1269.69 210.828C1286.81 210.828 1302.89 196.028 1302.89 196.028C1302.89 196.028 1349.07 193.563 1369.83 177.527C1390.58 161.496 1406.15 148.673 1406.15 148.673C1406.15 148.673 1474.12 98.5963 1483.46 85.0306C1492.8 71.465 1512 64.064 1512 64.064V1028H0V0.54834Z" fill="#071538"/>
</svg>
