<svg width="153" height="153" viewBox="0 0 153 153" fill="none" xmlns="http://www.w3.org/2000/svg">
<circle cx="76.5" cy="76.5" r="76.5" fill="#EAF1FF"/>
<path d="M79.6958 132.473C71.8704 132.473 65.5267 126.129 65.5267 118.304C65.5267 110.48 71.8704 104.136 79.6958 104.136C87.5212 104.136 93.8649 110.48 93.8649 118.304C93.8649 126.129 87.5212 132.473 79.6958 132.473Z" fill="#E1E1E1"/>
<path d="M30.7946 82.5541C20.0033 82.5541 11.2543 73.806 11.2543 63.0139C11.2543 52.2226 20.0033 43.4745 30.7946 43.4745C41.5858 43.4745 50.3348 52.2226 50.3348 63.0139C50.3348 73.806 41.5858 82.5541 30.7946 82.5541Z" fill="#E1E1E1"/>
<path d="M115.583 44.1611C110.994 44.1611 107.275 40.441 107.275 35.8526C107.275 31.2633 110.994 27.5432 115.583 27.5432C120.172 27.5432 123.892 31.2633 123.892 35.8526C123.892 40.441 120.172 44.1611 115.583 44.1611Z" fill="#E1E1E1"/>
<path d="M67.6778 30.3662C61.9751 30.3662 57.3519 25.743 57.3519 20.0403C57.3519 14.3366 61.9751 9.71342 67.6778 9.71342C73.3806 9.71342 78.0038 14.3366 78.0038 20.0403C78.0038 25.743 73.3806 30.3662 67.6778 30.3662Z" fill="#E1E1E1"/>
<path d="M82.833 17.1426C80.1657 17.1426 78.0039 14.9808 78.0039 12.3135C78.0039 9.64712 80.1657 7.48529 82.833 7.48529C85.5003 7.48529 87.6621 9.64712 87.6621 12.3135C87.6621 14.9808 85.5003 17.1426 82.833 17.1426Z" fill="#E1E1E1"/>
<path d="M9.54602 97.7546C6.87873 97.7546 4.7169 95.5928 4.7169 92.9255C4.7169 90.2591 6.87873 88.0973 9.54602 88.0973C12.2133 88.0973 14.3751 90.2591 14.3751 92.9255C14.3751 95.5928 12.2133 97.7546 9.54602 97.7546Z" fill="#E1E1E1"/>
<path d="M19.4708 102.583C18.1372 102.583 17.0567 101.502 17.0567 100.169C17.0567 98.8357 18.1372 97.7544 19.4708 97.7544C20.8045 97.7544 21.8849 98.8357 21.8849 100.169C21.8849 101.502 20.8045 102.583 19.4708 102.583Z" fill="#E1E1E1"/>
<path d="M98.7291 116.575C97.3954 116.575 96.315 115.494 96.315 114.161C96.315 112.827 97.3954 111.746 98.7291 111.746C100.063 111.746 101.143 112.827 101.143 114.161C101.143 115.494 100.063 116.575 98.7291 116.575Z" fill="#E1E1E1"/>
<path d="M114.79 50.0067C113.456 50.0067 112.376 48.9254 112.376 47.5926C112.376 46.259 113.456 45.1776 114.79 45.1776C116.124 45.1776 117.204 46.259 117.204 47.5926C117.204 48.9254 116.124 50.0067 114.79 50.0067Z" fill="#E1E1E1"/>
<path d="M138.253 69.7085C135.586 69.7085 133.424 67.5467 133.424 64.8794C133.424 62.213 135.586 60.0511 138.253 60.0511C140.92 60.0511 143.082 62.213 143.082 64.8794C143.082 67.5467 140.92 69.7085 138.253 69.7085Z" fill="#E1E1E1"/>
<path d="M107.274 139.062C104.607 139.062 102.445 136.9 102.445 134.233C102.445 131.567 104.607 129.405 107.274 129.405C109.941 129.405 112.103 131.567 112.103 134.233C112.103 136.9 109.941 139.062 107.274 139.062Z" fill="#E1E1E1"/>
<path d="M99.4738 108.626C95.1662 108.626 91.6734 105.133 91.6734 100.826C91.6734 96.5181 95.1662 93.0253 99.4738 93.0253C103.781 93.0253 107.274 96.5181 107.274 100.826C107.274 105.133 103.781 108.626 99.4738 108.626Z" fill="#E1E1E1"/>
<path d="M51.3709 129.405C47.0624 129.405 43.5705 125.912 43.5705 121.604C43.5705 117.297 47.0624 113.804 51.3709 113.804C55.6785 113.804 59.1713 117.297 59.1713 121.604C59.1713 125.912 55.6785 129.405 51.3709 129.405Z" fill="#E1E1E1"/>
</svg>
