<svg width="1512" height="241" viewBox="0 0 1512 241" fill="none" xmlns="http://www.w3.org/2000/svg">
<path d="M1.53821 85.3375C1.53821 85.3375 178.434 16.1746 220.617 12.185C233.337 10.9814 243.46 8.56884 253.148 6.25976C265.255 3.37434 276.684 0.650534 291.655 0.649414C304.434 0.649414 319.79 2.63115 340.361 8.1933C341.28 8.44158 342.206 8.69288 343.139 8.94705C348.119 10.3026 353.313 11.7399 358.671 13.2375C368.365 15.9466 378.596 18.8524 389.074 21.8281C446.687 38.191 511.72 56.6613 535.474 56.0834C535.464 56.0903 535.453 56.0972 535.443 56.1042C535.738 56.0975 536.026 56.0879 536.308 56.0753C552.029 55.3776 569.251 50.2777 590.93 43.8578C610.532 38.053 633.779 31.1689 662.855 25.4845C680.451 22.0451 694.676 18.0564 707.371 14.4969C738.853 5.66966 760.922 -0.518336 801.65 10.8544C826.793 17.8768 847.638 26.7007 865.783 34.3818C888.884 44.1608 907.61 52.0877 925.259 52.0877C937.138 52.0877 945.119 50.9537 952.056 49.9681C963.524 48.3388 972.14 47.1147 990.793 52.0877C1016.15 58.846 1035.65 60.8346 1055.9 62.9007C1059.56 63.2739 1063.25 63.6497 1066.99 64.0566C1091.49 66.7157 1117.34 70.7074 1150 76.0257C1165.65 78.5779 1192.25 66.1521 1220.8 52.8154C1222.65 51.9518 1224.51 51.0843 1226.37 50.2168C1255.75 36.5342 1286.55 22.8536 1309.21 24.154C1341.9 26.0359 1371.2 40.536 1394.69 52.166C1404.45 56.9932 1413.2 61.3259 1420.78 64.0566C1446.64 73.3665 1499.2 130.256 1499.2 130.256L1365 231.643L69.5742 240.955L1.53821 85.3375Z" fill="#354E8F"/>
</svg>
