<svg width="1512" height="262" viewBox="0 0 1512 262" fill="none" xmlns="http://www.w3.org/2000/svg">
<path d="M265.922 24.1606C303.771 25.0259 350.546 26.0951 393.094 13.073C423.884 3.64618 439.544 0.124268 457.414 0.124268C469.968 0.124268 483.612 1.86203 504.361 4.51106C507.504 4.91237 510.69 5.32699 513.9 5.75168C562.064 12.1221 615.888 20.76 615.888 20.76C615.888 20.76 620.486 21.5499 627.984 22.7849C650.48 26.4899 699.083 34.2007 727.97 36.6078C766.485 39.8172 817.841 36.6078 817.841 36.6078C817.841 36.6078 906.642 20.5624 948.367 24.8384C969.603 27.0167 984.743 34.4613 1000.84 42.3757C1016.37 50.0113 1032.79 58.0844 1056.43 62.2876C1063.8 63.5984 1070.73 64.8591 1077.25 66.0466C1113.3 72.6105 1137.07 76.9385 1157 75.1255C1169.51 73.9875 1185.04 67.7128 1202.95 60.4764C1218.74 54.0976 1236.38 46.9717 1255.43 41.9583C1260.33 40.6681 1265.19 39.238 1270.11 37.788C1306.02 27.2127 1345.53 15.5763 1433.03 49.4477C1532.53 87.9634 1468.34 110.432 1468.34 110.432C1468.34 110.432 1167.7 244.169 931.249 257.005C694.802 269.847 417.701 252.729 417.701 252.729L172.697 191.743L128.83 36.6078C128.83 36.6078 200.513 23.7699 241.168 23.7699C248.828 23.7699 257.134 23.9598 265.922 24.1606Z" fill="#1A2D5E"/>
</svg>
